<svg width="25" height="25" viewBox="0 0 25 25" fill="none" xmlns="http://www.w3.org/2000/svg">
<path d="M5.20266 12.9706C5.20266 13.2817 5.32286 13.5575 5.56328 13.7979C5.8037 14.0383 6.07947 14.1585 6.3906 14.1585H11.3121L11.3121 19.1224C11.3121 19.4335 11.4326 19.7022 11.6735 19.9285C11.9134 20.1548 12.1889 20.2679 12.5 20.2679C12.8111 20.2679 13.0869 20.1477 13.3273 19.9073C13.5677 19.6669 13.6879 19.3911 13.6879 19.08L13.6879 14.1585L18.6518 14.1585C18.963 14.1585 19.2317 14.038 19.4579 13.797C19.6842 13.5572 19.7973 13.2817 19.7973 12.9706C19.7973 12.6594 19.6771 12.3837 19.4367 12.1432C19.1963 11.9028 18.9205 11.7826 18.6094 11.7826H13.6879V6.81873C13.6879 6.50761 13.568 6.23891 13.3282 6.01263C13.0872 5.78636 12.8111 5.67322 12.5 5.67322C12.1889 5.67322 11.9131 5.79343 11.6727 6.03385C11.4323 6.27426 11.3121 6.55003 11.3121 6.86116L11.3121 11.7826L6.34817 11.7826C6.03704 11.7826 5.76863 11.9028 5.54292 12.1432C5.31608 12.3837 5.20266 12.6594 5.20266 12.9706ZM4.01472 21.4558C2.84092 20.282 1.96071 18.9561 1.3741 17.4779C0.786918 16.0004 0.493326 14.4979 0.493326 12.9706C0.493326 11.4432 0.786918 9.94075 1.3741 8.46318C1.96071 6.98505 2.84092 5.65908 4.01472 4.48528C5.18852 3.31148 6.51448 2.43128 7.99262 1.84466C9.47019 1.25748 10.9726 0.96389 12.5 0.96389C14.0274 0.96389 15.5301 1.2572 17.0082 1.84381C18.4858 2.431 19.8115 3.31148 20.9853 4.48528C22.1591 5.65908 23.0396 6.98476 23.6267 8.46233C24.2134 9.94047 24.5067 11.4432 24.5067 12.9706C24.5067 14.4979 24.2131 16.0004 23.6259 17.4779C23.0393 18.9561 22.1591 20.282 20.9853 21.4558C19.8115 22.6296 18.4855 23.5098 17.0074 24.0965C15.5298 24.6836 14.0274 24.9772 12.5 24.9772C10.9726 24.9772 9.47019 24.6836 7.99262 24.0965C6.51448 23.5098 5.18852 22.6296 4.01472 21.4558ZM5.71177 19.7588C7.59268 21.6397 9.85542 22.5804 12.5 22.581C15.1446 22.5804 17.4073 21.6397 19.2882 19.7588C21.1691 17.8779 22.1099 15.6151 22.1104 12.9706C22.1099 10.326 21.1691 8.06324 19.2882 6.18234C17.4073 4.30143 15.1449 3.36098 12.5008 3.36098C9.8557 3.36098 7.59268 4.30143 5.71178 6.18234C3.83087 8.06324 2.89042 10.3263 2.89042 12.9714C2.89042 15.6154 3.83087 17.8779 5.71177 19.7588Z" fill="#ED8D18"/>
</svg>
