<svg width="24" height="24" viewBox="0 0 24 24" fill="none" xmlns="http://www.w3.org/2000/svg">
<path d="M11.9997 14.95C11.8664 14.95 11.7414 14.929 11.6247 14.887C11.508 14.8456 11.3997 14.775 11.2997 14.675L6.6747 10.05C6.49136 9.86664 6.40403 9.63731 6.4127 9.36198C6.4207 9.08731 6.51636 8.85831 6.6997 8.67498C6.88303 8.49164 7.11636 8.39998 7.3997 8.39998C7.68303 8.39998 7.91636 8.49164 8.0997 8.67498L11.9997 12.575L15.9247 8.64998C16.108 8.46664 16.3374 8.37898 16.6127 8.38698C16.8874 8.39564 17.1164 8.49164 17.2997 8.67498C17.483 8.85831 17.5747 9.09164 17.5747 9.37498C17.5747 9.65831 17.483 9.89164 17.2997 10.075L12.6997 14.675C12.5997 14.775 12.4914 14.8456 12.3747 14.887C12.258 14.929 12.133 14.95 11.9997 14.95Z" fill="#54585B"/>
</svg>
