<svg width="16" height="16" viewBox="0 0 16 16" fill="none" xmlns="http://www.w3.org/2000/svg">
<path d="M7.99984 9.71667C7.91095 9.71667 7.82761 9.70267 7.74984 9.67467C7.67206 9.64711 7.59984 9.6 7.53317 9.53333L5.13317 7.13333C5.01095 7.01111 4.94984 6.85556 4.94984 6.66667C4.94984 6.47778 5.01095 6.32222 5.13317 6.2C5.25539 6.07778 5.41361 6.01378 5.60784 6.008C5.8025 6.00267 5.96095 6.06111 6.08317 6.18333L7.33317 7.43333V2.66667C7.33317 2.47778 7.39717 2.31933 7.52517 2.19133C7.65273 2.06378 7.81095 2 7.99984 2C8.18873 2 8.34717 2.06378 8.47517 2.19133C8.60273 2.31933 8.6665 2.47778 8.6665 2.66667V7.43333L9.9165 6.18333C10.0387 6.06111 10.1972 6.00267 10.3918 6.008C10.5861 6.01378 10.7443 6.07778 10.8665 6.2C10.9887 6.32222 11.0498 6.47778 11.0498 6.66667C11.0498 6.85556 10.9887 7.01111 10.8665 7.13333L8.4665 9.53333C8.39984 9.6 8.32761 9.64711 8.24984 9.67467C8.17206 9.70267 8.08873 9.71667 7.99984 9.71667ZM3.99984 12.6667C3.63317 12.6667 3.31939 12.5362 3.0585 12.2753C2.79717 12.014 2.6665 11.7 2.6665 11.3333V10C2.6665 9.81111 2.73028 9.65267 2.85784 9.52467C2.98584 9.39711 3.14428 9.33333 3.33317 9.33333C3.52206 9.33333 3.6805 9.39711 3.8085 9.52467C3.93606 9.65267 3.99984 9.81111 3.99984 10V11.3333H11.9998V10C11.9998 9.81111 12.0638 9.65267 12.1918 9.52467C12.3194 9.39711 12.4776 9.33333 12.6665 9.33333C12.8554 9.33333 13.0136 9.39711 13.1412 9.52467C13.2692 9.65267 13.3332 9.81111 13.3332 10V11.3333C13.3332 11.7 13.2027 12.014 12.9418 12.2753C12.6805 12.5362 12.3665 12.6667 11.9998 12.6667H3.99984Z" fill="#ED8D18"/>
</svg>
