<svg width="32" height="32" viewBox="0 0 32 32" fill="none" xmlns="http://www.w3.org/2000/svg">
<path d="M5.33333 24C4.95556 24 4.63911 23.872 4.384 23.616C4.128 23.3609 4 23.0444 4 22.6667C4 22.2889 4.128 21.9724 4.384 21.7173C4.63911 21.4613 4.95556 21.3333 5.33333 21.3333H20C20.3778 21.3333 20.6947 21.4613 20.9507 21.7173C21.2058 21.9724 21.3333 22.2889 21.3333 22.6667C21.3333 23.0444 21.2058 23.3609 20.9507 23.616C20.6947 23.872 20.3778 24 20 24H5.33333ZM5.33333 17.3333C4.95556 17.3333 4.63911 17.2053 4.384 16.9493C4.128 16.6942 4 16.3778 4 16C4 15.6222 4.128 15.3053 4.384 15.0493C4.63911 14.7942 4.95556 14.6667 5.33333 14.6667H16C16.3778 14.6667 16.6947 14.7942 16.9507 15.0493C17.2058 15.3053 17.3333 15.6222 17.3333 16C17.3333 16.3778 17.2058 16.6942 16.9507 16.9493C16.6947 17.2053 16.3778 17.3333 16 17.3333H5.33333ZM5.33333 10.6667C4.95556 10.6667 4.63911 10.5391 4.384 10.284C4.128 10.028 4 9.71111 4 9.33333C4 8.95556 4.128 8.63867 4.384 8.38267C4.63911 8.12756 4.95556 8 5.33333 8H20C20.3778 8 20.6947 8.12756 20.9507 8.38267C21.2058 8.63867 21.3333 8.95556 21.3333 9.33333C21.3333 9.71111 21.2058 10.028 20.9507 10.284C20.6947 10.5391 20.3778 10.6667 20 10.6667H5.33333ZM23.2 16L27.0667 19.8667C27.3111 20.1111 27.4333 20.4222 27.4333 20.8C27.4333 21.1778 27.3111 21.4889 27.0667 21.7333C26.8222 21.9778 26.5111 22.1 26.1333 22.1C25.7556 22.1 25.4444 21.9778 25.2 21.7333L20.4 16.9333C20.1333 16.6667 20 16.3556 20 16C20 15.6444 20.1333 15.3333 20.4 15.0667L25.2 10.2667C25.4444 10.0222 25.7556 9.9 26.1333 9.9C26.5111 9.9 26.8222 10.0222 27.0667 10.2667C27.3111 10.5111 27.4333 10.8222 27.4333 11.2C27.4333 11.5778 27.3111 11.8889 27.0667 12.1333L23.2 16Z" fill="#ED8D18"/>
</svg>
