<svg width="104" height="115" viewBox="0 0 104 115" fill="none" xmlns="http://www.w3.org/2000/svg">
<path fill-rule="evenodd" clip-rule="evenodd" d="M52 37.7143C51.8286 37.7143 51.6594 37.6759 51.5049 37.6017C51.3504 37.5275 51.2145 37.4195 51.1074 37.2857L41.9646 25.8571C41.83 25.689 41.7456 25.4863 41.7212 25.2724C41.6968 25.0584 41.7334 24.8419 41.8266 24.6478C41.9199 24.4537 42.0662 24.2899 42.2485 24.1753C42.4308 24.0607 42.6418 23.9999 42.8571 24H46.2857V1.14286C46.2857 0.839752 46.4061 0.549062 46.6204 0.334735C46.8348 0.120408 47.1255 0 47.4286 0H56.5714C56.8745 0 57.1652 0.120408 57.3795 0.334735C57.5939 0.549062 57.7143 0.839752 57.7143 1.14286V24H61.1428C61.3582 23.9999 61.5692 24.0607 61.7515 24.1753C61.9338 24.2899 62.0801 24.4537 62.1733 24.6478C62.2666 24.8419 62.3032 25.0584 62.2788 25.2724C62.2544 25.4863 62.17 25.689 62.0354 25.8571L52.8926 37.2857C52.7854 37.4195 52.6496 37.5275 52.4951 37.6017C52.3406 37.6759 52.1714 37.7143 52 37.7143ZM45.2354 26.2857L52 34.7429L58.7646 26.2857H56.5714C56.2683 26.2857 55.9776 26.1653 55.7633 25.951C55.549 25.7367 55.4286 25.446 55.4286 25.1429V2.28571H48.5714V25.1429C48.5714 25.446 48.451 25.7367 48.2367 25.951C48.0224 26.1653 47.7317 26.2857 47.4286 26.2857H45.2354ZM84 79.9992H20C17.879 79.9967 15.8456 79.1531 14.3458 77.6534C12.8461 76.1536 12.0024 74.1202 12 71.9992V44.5706C12 44.4706 12.0131 44.3719 12.0384 44.2769L21.1751 6.58799C21.2356 6.33898 21.378 6.11753 21.5794 5.95918C21.7809 5.80083 22.0297 5.71478 22.2859 5.71484H41.7145V8.00056H23.1854L14.5967 43.4277H36C36.24 43.4277 36.4739 43.5032 36.6685 43.6435C36.8632 43.7838 37.0087 43.9818 37.0846 44.2094L39.1097 50.2849H64.8903L66.9154 44.2094C66.9913 43.9818 67.1368 43.7838 67.3315 43.6435C67.5262 43.5032 67.76 43.4277 68 43.4277H89.4029L80.8143 8.00056H62.2852V5.71484H81.7137C81.97 5.71478 82.2188 5.80083 82.4203 5.95918C82.6217 6.11753 82.7641 6.33898 82.8246 6.58799L91.9585 44.2656C91.9858 44.3641 92 44.4666 92 44.5706V71.9992C91.9976 74.1202 91.154 76.1536 89.6542 77.6534C88.1544 79.1531 86.121 79.9967 84 79.9992ZM14.2857 45.7134V71.9992C14.2875 73.5141 14.8902 74.9665 15.9614 76.0378C17.0326 77.109 18.485 77.7116 20 77.7134H84C85.515 77.7116 86.9674 77.109 88.0386 76.0378C89.1099 74.9665 89.7125 73.5141 89.7143 71.9992V45.7134H68.824L66.7989 51.7889C66.723 52.0165 66.5775 52.2146 66.3828 52.3549C66.1881 52.4952 65.9542 52.5707 65.7143 52.5706H38.2857C38.0458 52.5707 37.8119 52.4952 37.6172 52.3549C37.4225 52.2146 37.277 52.0165 37.2011 51.7889L35.176 45.7134H14.2857ZM42.8574 60.5703H61.1431V62.856H42.8574V60.5703Z" fill="#747779"/>
<path d="M10.7443 97.3636V109H8.61932L3.55682 101.676H3.47159V109H1.01136V97.3636H3.17045L8.19318 104.682H8.29545V97.3636H10.7443ZM16.8747 109.17C15.9921 109.17 15.2289 108.983 14.5849 108.608C13.9448 108.229 13.4505 107.703 13.102 107.028C12.7535 106.35 12.5793 105.564 12.5793 104.67C12.5793 103.769 12.7535 102.981 13.102 102.307C13.4505 101.629 13.9448 101.102 14.5849 100.727C15.2289 100.348 15.9921 100.159 16.8747 100.159C17.7573 100.159 18.5187 100.348 19.1588 100.727C19.8027 101.102 20.299 101.629 20.6474 102.307C20.9959 102.981 21.1702 103.769 21.1702 104.67C21.1702 105.564 20.9959 106.35 20.6474 107.028C20.299 107.703 19.8027 108.229 19.1588 108.608C18.5187 108.983 17.7573 109.17 16.8747 109.17ZM16.8861 107.295C17.2876 107.295 17.6228 107.182 17.8918 106.955C18.1607 106.723 18.3634 106.409 18.4997 106.011C18.6399 105.614 18.7099 105.161 18.7099 104.653C18.7099 104.146 18.6399 103.693 18.4997 103.295C18.3634 102.898 18.1607 102.583 17.8918 102.352C17.6228 102.121 17.2876 102.006 16.8861 102.006C16.4808 102.006 16.1399 102.121 15.8634 102.352C15.5906 102.583 15.3842 102.898 15.244 103.295C15.1077 103.693 15.0395 104.146 15.0395 104.653C15.0395 105.161 15.1077 105.614 15.244 106.011C15.3842 106.409 15.5906 106.723 15.8634 106.955C16.1399 107.182 16.4808 107.295 16.8861 107.295ZM29.2676 103.955V109H26.8472V97.3636H29.1994V101.812H29.3017C29.4987 101.297 29.8169 100.894 30.2563 100.602C30.6956 100.307 31.2468 100.159 31.9097 100.159C32.5157 100.159 33.0441 100.292 33.4949 100.557C33.9494 100.818 34.3017 101.195 34.5517 101.688C34.8055 102.176 34.9305 102.761 34.9267 103.443V109H32.5063V103.875C32.51 103.337 32.3737 102.919 32.0972 102.619C31.8244 102.32 31.4419 102.17 30.9494 102.17C30.6199 102.17 30.3282 102.241 30.0744 102.381C29.8244 102.521 29.6275 102.725 29.4835 102.994C29.3434 103.259 29.2714 103.58 29.2676 103.955ZM39.5202 109.165C38.9634 109.165 38.4671 109.068 38.0315 108.875C37.5959 108.678 37.2512 108.388 36.9974 108.006C36.7474 107.619 36.6224 107.138 36.6224 106.562C36.6224 106.078 36.7115 105.67 36.8895 105.341C37.0675 105.011 37.3099 104.746 37.6168 104.545C37.9236 104.345 38.2721 104.193 38.6622 104.091C39.0562 103.989 39.469 103.917 39.9009 103.875C40.4084 103.822 40.8175 103.773 41.1281 103.727C41.4387 103.678 41.6641 103.606 41.8043 103.511C41.9444 103.417 42.0145 103.277 42.0145 103.091V103.057C42.0145 102.697 41.9009 102.419 41.6736 102.222C41.4501 102.025 41.1319 101.926 40.719 101.926C40.2834 101.926 39.9368 102.023 39.6793 102.216C39.4217 102.405 39.2512 102.644 39.1679 102.932L36.9293 102.75C37.0429 102.22 37.2664 101.761 37.5997 101.375C37.933 100.985 38.363 100.686 38.8895 100.477C39.4198 100.265 40.0334 100.159 40.7304 100.159C41.2152 100.159 41.6793 100.216 42.1224 100.33C42.5694 100.443 42.9652 100.619 43.3099 100.858C43.6584 101.097 43.933 101.403 44.1338 101.778C44.3346 102.15 44.4349 102.595 44.4349 103.114V109H42.1395V107.79H42.0713C41.9312 108.062 41.7437 108.303 41.5088 108.511C41.274 108.716 40.9918 108.877 40.6622 108.994C40.3327 109.108 39.952 109.165 39.5202 109.165ZM40.2134 107.494C40.5694 107.494 40.8838 107.424 41.1565 107.284C41.4293 107.14 41.6433 106.947 41.7986 106.705C41.9539 106.462 42.0315 106.187 42.0315 105.881V104.955C41.9558 105.004 41.8516 105.049 41.719 105.091C41.5902 105.129 41.4444 105.165 41.2815 105.199C41.1187 105.229 40.9558 105.258 40.7929 105.284C40.63 105.307 40.4823 105.328 40.3497 105.347C40.0656 105.388 39.8175 105.455 39.6054 105.545C39.3933 105.636 39.2285 105.759 39.1111 105.915C38.9937 106.066 38.9349 106.256 38.9349 106.483C38.9349 106.812 39.0543 107.064 39.2929 107.239C39.5353 107.409 39.8421 107.494 40.2134 107.494ZM47.6946 112.273C47.3878 112.273 47.0999 112.248 46.831 112.199C46.5658 112.153 46.3461 112.095 46.1719 112.023L46.7173 110.216C47.0014 110.303 47.2571 110.35 47.4844 110.358C47.7154 110.366 47.9143 110.313 48.081 110.199C48.2514 110.085 48.3897 109.892 48.4957 109.619L48.6378 109.25L45.5071 100.273H48.0526L49.8594 106.682H49.9503L51.7741 100.273H54.3366L50.9446 109.943C50.7817 110.413 50.5601 110.822 50.2798 111.17C50.0033 111.523 49.6529 111.794 49.2287 111.983C48.8045 112.176 48.2931 112.273 47.6946 112.273ZM62.8943 109.142C62.2314 109.142 61.6311 108.972 61.0932 108.631C60.5591 108.286 60.1349 107.78 59.8205 107.114C59.5099 106.443 59.3545 105.621 59.3545 104.648C59.3545 103.648 59.5155 102.816 59.8375 102.153C60.1595 101.487 60.5875 100.989 61.1216 100.659C61.6595 100.326 62.2485 100.159 62.8886 100.159C63.3773 100.159 63.7845 100.242 64.1102 100.409C64.4398 100.572 64.7049 100.777 64.9057 101.023C65.1102 101.265 65.2655 101.504 65.3716 101.739H65.4455V97.3636H67.8602V109H65.4739V107.602H65.3716C65.258 107.845 65.097 108.085 64.8886 108.324C64.6841 108.559 64.417 108.754 64.0875 108.909C63.7617 109.064 63.364 109.142 62.8943 109.142ZM63.6614 107.216C64.0515 107.216 64.3811 107.11 64.65 106.898C64.9227 106.682 65.1311 106.381 65.275 105.994C65.4227 105.608 65.4966 105.155 65.4966 104.636C65.4966 104.117 65.4246 103.667 65.2807 103.284C65.1367 102.902 64.9284 102.606 64.6557 102.398C64.383 102.189 64.0515 102.085 63.6614 102.085C63.2636 102.085 62.9284 102.193 62.6557 102.409C62.383 102.625 62.1765 102.924 62.0364 103.307C61.8962 103.689 61.8261 104.133 61.8261 104.636C61.8261 105.144 61.8962 105.593 62.0364 105.983C62.1803 106.369 62.3867 106.672 62.6557 106.892C62.9284 107.108 63.2636 107.216 63.6614 107.216ZM72.5389 109.165C71.9821 109.165 71.4859 109.068 71.0503 108.875C70.6147 108.678 70.27 108.388 70.0162 108.006C69.7662 107.619 69.6412 107.138 69.6412 106.562C69.6412 106.078 69.7302 105.67 69.9082 105.341C70.0863 105.011 70.3287 104.746 70.6355 104.545C70.9423 104.345 71.2908 104.193 71.681 104.091C72.0749 103.989 72.4878 103.917 72.9196 103.875C73.4272 103.822 73.8363 103.773 74.1469 103.727C74.4575 103.678 74.6829 103.606 74.823 103.511C74.9632 103.417 75.0332 103.277 75.0332 103.091V103.057C75.0332 102.697 74.9196 102.419 74.6923 102.222C74.4688 102.025 74.1507 101.926 73.7378 101.926C73.3022 101.926 72.9556 102.023 72.698 102.216C72.4404 102.405 72.27 102.644 72.1866 102.932L69.948 102.75C70.0616 102.22 70.2851 101.761 70.6185 101.375C70.9518 100.985 71.3817 100.686 71.9082 100.477C72.4385 100.265 73.0522 100.159 73.7491 100.159C74.234 100.159 74.698 100.216 75.1412 100.33C75.5882 100.443 75.984 100.619 76.3287 100.858C76.6772 101.097 76.9518 101.403 77.1526 101.778C77.3533 102.15 77.4537 102.595 77.4537 103.114V109H75.1582V107.79H75.0901C74.9499 108.062 74.7624 108.303 74.5276 108.511C74.2927 108.716 74.0105 108.877 73.681 108.994C73.3514 109.108 72.9707 109.165 72.5389 109.165ZM73.2321 107.494C73.5882 107.494 73.9026 107.424 74.1753 107.284C74.448 107.14 74.662 106.947 74.8173 106.705C74.9726 106.462 75.0503 106.187 75.0503 105.881V104.955C74.9745 105.004 74.8704 105.049 74.7378 105.091C74.609 105.129 74.4632 105.165 74.3003 105.199C74.1374 105.229 73.9745 105.258 73.8116 105.284C73.6488 105.307 73.501 105.328 73.3685 105.347C73.0844 105.388 72.8363 105.455 72.6241 105.545C72.412 105.636 72.2473 105.759 72.1298 105.915C72.0124 106.066 71.9537 106.256 71.9537 106.483C71.9537 106.812 72.073 107.064 72.3116 107.239C72.5541 107.409 72.8609 107.494 73.2321 107.494ZM84.1736 100.273V102.091H78.9179V100.273H84.1736ZM80.1111 98.1818H82.5315V106.318C82.5315 106.542 82.5656 106.716 82.6338 106.841C82.702 106.962 82.7967 107.047 82.9179 107.097C83.0429 107.146 83.1868 107.17 83.3497 107.17C83.4634 107.17 83.577 107.161 83.6906 107.142C83.8043 107.119 83.8914 107.102 83.952 107.091L84.3327 108.892C84.2115 108.93 84.041 108.973 83.8213 109.023C83.6016 109.076 83.3346 109.108 83.0202 109.119C82.4368 109.142 81.9255 109.064 81.4861 108.886C81.0505 108.708 80.7115 108.432 80.469 108.057C80.2266 107.682 80.1073 107.208 80.1111 106.636V98.1818ZM89.7997 109.17C88.9171 109.17 88.1539 108.983 87.5099 108.608C86.8698 108.229 86.3755 107.703 86.027 107.028C85.6785 106.35 85.5043 105.564 85.5043 104.67C85.5043 103.769 85.6785 102.981 86.027 102.307C86.3755 101.629 86.8698 101.102 87.5099 100.727C88.1539 100.348 88.9171 100.159 89.7997 100.159C90.6823 100.159 91.4437 100.348 92.0838 100.727C92.7277 101.102 93.224 101.629 93.5724 102.307C93.9209 102.981 94.0952 103.769 94.0952 104.67C94.0952 105.564 93.9209 106.35 93.5724 107.028C93.224 107.703 92.7277 108.229 92.0838 108.608C91.4437 108.983 90.6823 109.17 89.7997 109.17ZM89.8111 107.295C90.2126 107.295 90.5478 107.182 90.8168 106.955C91.0857 106.723 91.2884 106.409 91.4247 106.011C91.5649 105.614 91.6349 105.161 91.6349 104.653C91.6349 104.146 91.5649 103.693 91.4247 103.295C91.2884 102.898 91.0857 102.583 90.8168 102.352C90.5478 102.121 90.2126 102.006 89.8111 102.006C89.4058 102.006 89.0649 102.121 88.7884 102.352C88.5156 102.583 88.3092 102.898 88.169 103.295C88.0327 103.693 87.9645 104.146 87.9645 104.653C87.9645 105.161 88.0327 105.614 88.169 106.011C88.3092 106.409 88.5156 106.723 88.7884 106.955C89.0649 107.182 89.4058 107.295 89.8111 107.295ZM103.13 102.761L100.914 102.898C100.877 102.708 100.795 102.538 100.67 102.386C100.545 102.231 100.38 102.108 100.176 102.017C99.9751 101.922 99.7346 101.875 99.4543 101.875C99.0793 101.875 98.763 101.955 98.5054 102.114C98.2478 102.269 98.119 102.477 98.119 102.739C98.119 102.947 98.2024 103.123 98.369 103.267C98.5357 103.411 98.8217 103.527 99.227 103.614L100.807 103.932C101.655 104.106 102.288 104.386 102.704 104.773C103.121 105.159 103.329 105.667 103.329 106.295C103.329 106.867 103.161 107.369 102.824 107.801C102.49 108.233 102.032 108.57 101.449 108.812C100.869 109.051 100.2 109.17 99.4429 109.17C98.2876 109.17 97.3671 108.93 96.6815 108.449C95.9997 107.964 95.6001 107.305 95.4827 106.472L97.8633 106.347C97.9353 106.699 98.1096 106.968 98.3861 107.153C98.6626 107.335 99.0168 107.426 99.4486 107.426C99.8728 107.426 100.214 107.345 100.471 107.182C100.733 107.015 100.865 106.801 100.869 106.54C100.865 106.32 100.772 106.14 100.591 106C100.409 105.856 100.129 105.746 99.7497 105.67L98.2383 105.369C97.3861 105.199 96.7516 104.903 96.3349 104.483C95.9221 104.062 95.7156 103.527 95.7156 102.875C95.7156 102.314 95.8671 101.831 96.1702 101.426C96.477 101.021 96.9069 100.708 97.4599 100.489C98.0168 100.269 98.6683 100.159 99.4145 100.159C100.517 100.159 101.384 100.392 102.017 100.858C102.653 101.324 103.024 101.958 103.13 102.761Z" fill="#747779"/>
</svg>
