<svg width="17" height="18" viewBox="0 0 17 18" fill="none" xmlns="http://www.w3.org/2000/svg">
<path d="M9.44444 0.5H7.55556V9.94444H9.44444V0.5ZM14.0061 2.54944L12.665 3.89056C14.1572 5.09 15.1111 6.93167 15.1111 9C15.1111 12.655 12.155 15.6111 8.5 15.6111C4.845 15.6111 1.88889 12.655 1.88889 9C1.88889 6.93167 2.84278 5.09 4.32556 3.88111L2.99389 2.54944C1.16167 4.10778 0 6.41222 0 9C0 13.6939 3.80611 17.5 8.5 17.5C13.1939 17.5 17 13.6939 17 9C17 6.41222 15.8383 4.10778 14.0061 2.54944Z" fill="#54585B"/>
</svg>
