<svg id="visual" viewBox="0 0 900 450" width="900" height="450" xmlns="http://www.w3.org/2000/svg" xmlns:xlink="http://www.w3.org/1999/xlink" version="1.1"><rect x="0" y="0" width="900" height="450" fill="#b7e3c8"></rect><path d="M0 147L7.5 147.2C15 147.3 30 147.7 45 135.7C60 123.7 75 99.3 90 86.2C105 73 120 71 135 75.5C150 80 165 91 180 97.8C195 104.7 210 107.3 225 102.2C240 97 255 84 270 91.8C285 99.7 300 128.3 315 137.3C330 146.3 345 135.7 360 134.2C375 132.7 390 140.3 405 131.2C420 122 435 96 450 98C465 100 480 130 495 130.2C510 130.3 525 100.7 540 88C555 75.3 570 79.7 585 85.3C600 91 615 98 630 104.7C645 111.3 660 117.7 675 110C690 102.3 705 80.7 720 73.2C735 65.7 750 72.3 765 86.5C780 100.7 795 122.3 810 119.5C825 116.7 840 89.3 855 89.8C870 90.3 885 118.7 892.5 132.8L900 147L900 0L892.5 0C885 0 870 0 855 0C840 0 825 0 810 0C795 0 780 0 765 0C750 0 735 0 720 0C705 0 690 0 675 0C660 0 645 0 630 0C615 0 600 0 585 0C570 0 555 0 540 0C525 0 510 0 495 0C480 0 465 0 450 0C435 0 420 0 405 0C390 0 375 0 360 0C345 0 330 0 315 0C300 0 285 0 270 0C255 0 240 0 225 0C210 0 195 0 180 0C165 0 150 0 135 0C120 0 105 0 90 0C75 0 60 0 45 0C30 0 15 0 7.5 0L0 0Z" fill="#1d5f41" stroke-linecap="round" stroke-linejoin="miter"></path></svg>